<svg xmlns="http://www.w3.org/2000/svg" viewBox="0 0 64 64"><title>Artboard-22</title><g id="Add"><path d="M34,49H30a1,1,0,0,0-1,1v4a1,1,0,0,0,1,1h4a1,1,0,0,0,1-1V50A1,1,0,0,0,34,49Zm-1,4H31V51h2Z" style="fill:#202023"/><path d="M26,49H22a1,1,0,0,0-1,1v4a1,1,0,0,0,1,1h4a1,1,0,0,0,1-1V50A1,1,0,0,0,26,49Zm-1,4H23V51h2Z" style="fill:#202023"/><path d="M18,49H14a1,1,0,0,0-1,1v4a1,1,0,0,0,1,1h4a1,1,0,0,0,1-1V50A1,1,0,0,0,18,49Zm-1,4H15V51h2Z" style="fill:#202023"/><path d="M10,49H6a1,1,0,0,0-1,1v4a1,1,0,0,0,1,1h4a1,1,0,0,0,1-1V50A1,1,0,0,0,10,49ZM9,53H7V51H9Z" style="fill:#202023"/><path d="M35,42a1,1,0,0,0-1-1H30a1,1,0,0,0-1,1v4a1,1,0,0,0,1,1h4a1,1,0,0,0,1-1Zm-2,3H31V43h2Z" style="fill:#202023"/><path d="M27,42a1,1,0,0,0-1-1H22a1,1,0,0,0-1,1v4a1,1,0,0,0,1,1h4a1,1,0,0,0,1-1Zm-2,3H23V43h2Z" style="fill:#202023"/><path d="M19,42a1,1,0,0,0-1-1H14a1,1,0,0,0-1,1v4a1,1,0,0,0,1,1h4a1,1,0,0,0,1-1Zm-2,3H15V43h2Z" style="fill:#202023"/><path d="M11,42a1,1,0,0,0-1-1H6a1,1,0,0,0-1,1v4a1,1,0,0,0,1,1h4a1,1,0,0,0,1-1ZM9,45H7V43H9Z" style="fill:#202023"/><path d="M35,34a1,1,0,0,0-1-1H30a1,1,0,0,0-1,1v4a1,1,0,0,0,1,1h4a1,1,0,0,0,1-1Zm-2,3H31V35h2Z" style="fill:#202023"/><path d="M38,33a1,1,0,0,0-1,1v4a1,1,0,0,0,2,0V35h3a1,1,0,0,0,0-2Z" style="fill:#202023"/><path d="M27,34a1,1,0,0,0-1-1H22a1,1,0,0,0-1,1v4a1,1,0,0,0,1,1h4a1,1,0,0,0,1-1Zm-2,3H23V35h2Z" style="fill:#202023"/><path d="M19,34a1,1,0,0,0-1-1H14a1,1,0,0,0-1,1v4a1,1,0,0,0,1,1h4a1,1,0,0,0,1-1Zm-2,3H15V35h2Z" style="fill:#202023"/><path d="M11,34a1,1,0,0,0-1-1H6a1,1,0,0,0-1,1v4a1,1,0,0,0,1,1h4a1,1,0,0,0,1-1ZM9,37H7V35H9Z" style="fill:#202023"/><path d="M59,30a1,1,0,0,0-1-1H6a1,1,0,0,0,0,2H58A1,1,0,0,0,59,30Z" style="fill:#202023"/><path d="M6,27h4a1,1,0,0,0,0-2H6a1,1,0,0,0,0,2Z" style="fill:#202023"/><path d="M18,27a1,1,0,0,0,0-2H14a1,1,0,0,0,0,2Z" style="fill:#202023"/><path d="M26,27a1,1,0,0,0,0-2H22a1,1,0,0,0,0,2Z" style="fill:#202023"/><path d="M34,27a1,1,0,0,0,0-2H30a1,1,0,0,0,0,2Z" style="fill:#202023"/><path d="M42,27a1,1,0,0,0,0-2H38a1,1,0,0,0,0,2Z" style="fill:#202023"/><path d="M50,27a1,1,0,0,0,0-2H46a1,1,0,0,0,0,2Z" style="fill:#202023"/><path d="M58,25H54a1,1,0,0,0,0,2h4a1,1,0,0,0,0-2Z" style="fill:#202023"/><path d="M58,10H57V8a4,4,0,0,0-8,0v2H43V8a4,4,0,0,0-8,0v2H29V8a4,4,0,0,0-8,0v2H15V8A4,4,0,0,0,7,8v2H6a6.006,6.006,0,0,0-6,6V54a6.006,6.006,0,0,0,6,6H51a12.993,12.993,0,1,0-10.561-5.415,1,1,0,1,0,1.622-1.17A10.9,10.9,0,0,1,40,47,11,11,0,1,1,51,58H6a4,4,0,0,1-4-4V22H62V35a1,1,0,0,0,2,0V16A6.006,6.006,0,0,0,58,10ZM51,8a2,2,0,0,1,4,0v6a2,2,0,0,1-4,0ZM37,8a2,2,0,0,1,4,0v6a2,2,0,0,1-4,0ZM23,8a2,2,0,0,1,4,0v6a2,2,0,0,1-4,0ZM9,8a2,2,0,0,1,4,0v6a2,2,0,0,1-4,0ZM2,20V16a4,4,0,0,1,4-4H7v2a4,4,0,0,0,8,0V12h6v2a4,4,0,0,0,8,0V12h6v2a4,4,0,0,0,8,0V12h6v2a4,4,0,0,0,8,0V12h1a4,4,0,0,1,4,4v4Z" style="fill:#202023"/><path d="M51,41a1,1,0,0,0-1,1v4H46a1,1,0,0,0,0,2h4v4a1,1,0,0,0,2,0V48h4a1,1,0,0,0,0-2H52V42A1,1,0,0,0,51,41Z" style="fill:#202023"/></g></svg>